<svg width="32" height="32" viewBox="0 0 32 32" fill="none" xmlns="http://www.w3.org/2000/svg">
  <rect width="32" height="32" rx="8" fill="#E91E63"/>
  <path d="M16 6C13.2386 6 11 8.23858 11 11C11 13.7614 13.2386 16 16 16C18.7614 16 21 13.7614 21 11C21 8.23858 18.7614 6 16 6Z" fill="white"/>
  <path d="M8 20C8 17.7909 9.79086 16 12 16H20C22.2091 16 24 17.7909 24 20V24C24 25.1046 23.1046 26 22 26H10C8.89543 26 8 25.1046 8 24V20Z" fill="white"/>
  <circle cx="22" cy="10" r="4" fill="#FF4081"/>
  <path d="M22 8V12M20 10H24" stroke="white" stroke-width="1.5" stroke-linecap="round"/>
</svg>